<svg viewBox="0 0 512 512" xmlns="http://www.w3.org/2000/svg"><path d="M504.1 389.59 370.51 256 504.1 122.41a26.983 26.983 0 0 0 0-38.168L427.762 7.906c-10.538-10.538-27.628-10.538-38.168 0l-133.59 133.59-133.59-133.59c-10.538-10.538-27.628-10.538-38.168 0L7.911 84.242c-10.54 10.54-10.54 27.628 0 38.168L141.501 256 7.911 389.59c-10.54 10.54-10.54 27.628 0 38.168l76.338 76.338a26.985 26.985 0 0 0 38.168 0l133.59-133.59 133.59 133.59a26.99 26.99 0 0 0 38.168 0l76.338-76.338c10.54-10.538 10.54-27.626-.002-38.168z" fill="#ff9b9b"/><path d="m7.907 427.76 76.338 76.338a26.983 26.983 0 0 0 38.166 0l133.59-133.59v-229.01L122.411 7.908c-10.538-10.54-27.628-10.54-38.168 0L7.908 84.244c-10.54 10.54-10.54 27.628 0 38.168l133.59 133.59-133.59 133.59c-10.542 10.542-10.542 27.63 0 38.17z" fill="#ff5757"/></svg>