<svg enable-background="new 0 0 512.003 512.003" viewBox="0 0 512 512" xmlns="http://www.w3.org/2000/svg"><path d="m504.1 389.59-133.59-133.59 133.59-133.59c5.063-5.061 7.906-11.926 7.906-19.085 0-7.158-2.843-14.024-7.906-19.083l-76.338-76.336c-10.538-10.538-27.628-10.538-38.168 0l-133.59 133.59-133.59-133.59c-10.538-10.538-27.628-10.538-38.168 0l-76.335 76.336c-10.54 10.54-10.54 27.628 0 38.168l133.59 133.59-133.59 133.59c-10.54 10.54-10.54 27.628 0 38.168l76.338 76.338c5.061 5.061 11.926 7.906 19.085 7.906 7.158 0 14.024-2.845 19.083-7.906l133.59-133.59 133.59 133.59c5.061 5.061 11.926 7.906 19.083 7.906 7.159 0 14.024-2.845 19.085-7.906l76.338-76.338c10.54-10.538 10.54-27.626-.002-38.168z" fill="#ff9b9b"/><path d="m7.907 427.76 76.338 76.338c5.06 5.061 11.926 7.906 19.083 7.906 7.159 0 14.024-2.845 19.083-7.906l133.59-133.59v-229.01l-133.59-133.59c-10.538-10.54-27.628-10.54-38.168 0l-76.335 76.336c-10.54 10.54-10.54 27.628 0 38.168l133.59 133.59-133.59 133.59c-10.542 10.542-10.542 27.63 0 38.17z" fill="#ff5757"/></svg>