<svg height="36" width="36" xmlns="http://www.w3.org/2000/svg" xmlns:xlink="http://www.w3.org/1999/xlink"><linearGradient id="a" gradientUnits="userSpaceOnUse" x1="21.4638750264" x2="39.3861500528" y1="15.76599020588" y2="47.0981594575"><stop offset="0" stop-color="#982007"/><stop offset="1" stop-color="#510f02"/></linearGradient><linearGradient id="b" gradientUnits="userSpaceOnUse" x1="-16.09201437188" x2="10.00000296875" y1="17.9439214231" y2="44.03780012095"><stop offset="0" stop-color="#f1140c"/><stop offset="1" stop-color="#8d1a02"/></linearGradient><linearGradient id="c" gradientUnits="userSpaceOnUse" x1="19.99821862812" x2="46.09023596875" y1="19.0341644231" y2="45.12804312095"><stop offset="0" stop-color="#ff8b8e"/><stop offset="1" stop-color="#b42314" stop-opacity=".722408"/></linearGradient><g transform="translate(-14 -14)"><path d="m16.025098 21.211331c-.376011.453764-.341851 1.119896.078605 1.532816l9.255853 9.255853-9.255853 9.255853c-.214998.212989-.335953.503074-.335953.805711s.120955.592721.335953.805711l5.030782 5.030782c.212991.214998.503074.335953.805712.335953.302636 0 .59272-.120955.80571-.335953l9.255853-9.255852 9.255853 9.255852c.21299.214998.503074.335953.805711.335953s.592721-.120955.805711-.335953l5.030782-5.030782c.214999-.21299.335954-.503074.335954-.805711s-.120955-.592722-.335954-.805711l-9.255852-9.255853 9.255852-9.255853c.214999-.212989.335954-.503074.335954-.80571 0-.302638-.120955-.592722-.335954-.805712l-5.030782-5.030782c-.21299-.214998-.503074-.335953-.805711-.335953s-.592721.120955-.805711.335953l-9.255853 9.255853-9.255853-9.255853c-.21299-.214998-.503074-.335953-.80571-.335953-.302638 0-.592721.120955-.805712.335953l-5.030782 5.030782c-.027471.024902-.053704.051135-.078605.078606z" fill="url(#a)"/><path d="m-14.375 15.84375c-.179831.047232-.342448.144803-.46875.28125l-4.03125 4.03125c-.377158.380743-.377158.994257 0 1.375l9.375 9.375-9.375 9.375c-.377158.380743-.377158.994257 0 1.375l4.03125 4.03125c.380743.377158.994257.377158 1.375 0l9.375-9.375 9.375 9.375c.3807433.377158.9942567.377158 1.375 0l4.03125-4.03125c.377158-.380743.377158-.994257 0-1.375l-9.375-9.375 9.375-9.375c.377158-.380743.377158-.994257 0-1.375l-4.03125-4.03125c-.3807433-.377158-.9942567-.377158-1.375 0l-9.375 9.375-9.375-9.375c-.23321-.244017-.575864-.350358-.90625-.28125z" fill="url(#b)" transform="translate(36.09375 1.103297)"/><path d="m21.84375 17.65625c-.035456.013705-.067463.035042-.09375.0625l-4.03125 4.03125c-.031889.035156-.053508.078396-.0625.125-.016077.050843-.016077.105407 0 .15625.013705.035456.035042.067463.0625.09375l9.5625 9.5625c.087805.083751.15625.198401.15625.3125s-.068444.228747-.15625.3125l-9.5625 9.5625c-.031889.035156-.053508.078396-.0625.125-.016077.050843-.016077.105407 0 .15625.013705.035456.035042.067463.0625.09375l4.03125 4.03125c.035156.031889.078396.053508.125.0625.050843.016077.105407.016077.15625 0 .035456-.013705.067463-.035042.09375-.0625l9.5625-9.5625c.083751-.087805.198401-.15625.3125-.15625.114096-.000001.228746.068443.3125.15625l9.5625 9.5625c.035156.031889.078396.053508.125.0625.050843.016077.105407.016077.15625 0 .035456-.013705.067463-.035042.09375-.0625l4.03125-4.03125c.031889-.035156.053508-.078396.0625-.125.016077-.050843.016077-.105407 0-.15625-.013705-.035456-.035042-.067463-.0625-.09375l-9.5625-9.5625c-.087805-.083751-.15625-.198401-.15625-.3125-.000001-.114096.068443-.228746.15625-.3125l9.5625-9.5625c.031889-.035156.053508-.078396.0625-.125.016077-.050843.016077-.105407 0-.15625-.013705-.035456-.035042-.067463-.0625-.09375l-4.03125-4.03125c-.035156-.031889-.078396-.053508-.125-.0625-.050843-.016077-.105407-.016077-.15625 0-.035456.013705-.067463.035042-.09375.0625l-9.5625 9.5625c-.083751.087805-.198401.15625-.3125.15625s-.228747-.068444-.3125-.15625l-9.5625-9.5625c-.035156-.031889-.078396-.053508-.125-.0625-.050843-.016077-.105407-.016077-.15625 0z" fill="url(#c)"/></g></svg>