<svg viewBox="0 0 512 512" xmlns="http://www.w3.org/2000/svg"><path d="m505.18 113.8-65.836-65.834c-9.089-9.09-23.827-9.089-32.917 0l-150.43 150.43-84.594 84.594-65.839-65.839c-4.365-4.365-10.285-6.817-16.459-6.817-6.173 0-12.094 2.452-16.458 6.818l-65.832 65.84c-9.09 9.09-9.09 23.827 0 32.917l148.12 148.13c4.363 4.365 10.285 6.817 16.458 6.817 6.174 0 12.094-2.453 16.458-6.817l317.32-317.32c4.365-4.365 6.818-10.285 6.818-16.458-.002-6.174-2.454-12.095-6.819-16.46z" fill="#c2fb3b"/><path d="m154.94 464.04c4.363 4.365 10.285 6.818 16.458 6.818 6.174 0 12.094-2.453 16.458-6.818l68.141-68.141v-197.5l-84.594 84.594-65.839-65.839c-4.365-4.365-10.285-6.817-16.458-6.817s-12.094 2.452-16.458 6.818l-65.832 65.838c-9.09 9.09-9.09 23.827 0 32.917z" fill="#9cdd05"/></svg>