<svg viewBox="0 0 512 512" xmlns="http://www.w3.org/2000/svg"><path d="m505.18 113.8-65.836-65.834c-9.089-9.09-23.827-9.089-32.917 0l-150.43 150.43-84.594 84.594-65.839-65.839a23.275 23.275 0 0 0-32.917.001l-65.832 65.84c-9.09 9.09-9.09 23.827 0 32.917l148.12 148.13a23.271 23.271 0 0 0 32.916 0l317.32-317.32a23.276 23.276 0 0 0-.001-32.918z" fill="#c2fb3b"/><path d="M154.94 464.04a23.272 23.272 0 0 0 32.916 0l68.141-68.141v-197.5l-84.594 84.594-65.839-65.839a23.275 23.275 0 0 0-32.916.001L6.816 282.993c-9.09 9.09-9.09 23.827 0 32.917z" fill="#9cdd05"/></svg>