<svg enable-background="new 0 0 492 389" height="389" viewBox="0 0 492 389" width="492" xmlns="http://www.w3.org/2000/svg" xmlns:xlink="http://www.w3.org/1999/xlink"><filter id="a"><feGaussianBlur stdDeviation="4"/></filter><linearGradient id="b" gradientUnits="userSpaceOnUse" x1="218.6826" x2="274.0625" y1="28.1475" y2="249.6676"><stop offset="0" stop-color="#8cc63f"/><stop offset=".1399" stop-color="#83bd3f"/><stop offset=".3511" stop-color="#6aac40"/><stop offset=".6071" stop-color="#419440"/><stop offset=".896" stop-color="#00793d"/><stop offset="1" stop-color="#006e3a"/></linearGradient><linearGradient id="c" gradientUnits="userSpaceOnUse" x1="216.9521" x2="247.2941" y1="38.0352" y2="159.4035"><stop offset="0" stop-color="#f3f8eb"/><stop offset="1" stop-color="#8cc63f"/></linearGradient><g filter="url(#a)"><path d="m366.884 32.403-156.19 156.188-85.792-85.79-83.92 83.92 85.792 85.788 83.92 83.923 240.105-240.109z" fill="#636466"/></g><path d="m365.508 12.356-156.19 156.188-85.793-85.79-83.919 83.92 85.792 85.788 83.92 83.923 240.105-240.109z" fill="url(#b)"/><path d="m234.057 157.79c14.626-10.932 27.803-21.647 39.055-30.926l2.092-1.72c31.739-26.158 92.36-41.814 149.022-40.081-19.952-19.951-49.744-49.749-58.718-58.721-11.244 11.244-104.966 104.965-131.451 131.448zm-180.462 8.884c10.418 10.418 48.933 48.933 55.462 55.458 36.231-9.831 68.298-26.15 95.878-43.982-1.217-1.222-69.612-69.61-81.41-81.408-10.68 10.681-59.246 59.247-69.93 69.932z" fill="url(#c)"/></svg>