<svg viewBox="0 0 362 324.7" xmlns="http://www.w3.org/2000/svg" xmlns:xlink="http://www.w3.org/1999/xlink"><linearGradient id="a"><stop offset="0" stop-color="#13ad3f"/><stop offset="1" stop-color="#0a5921"/></linearGradient><linearGradient id="d" gradientUnits="userSpaceOnUse" x1="544.07" x2="557.65" y1="-9.38" y2="310.23"><stop offset="0" stop-color="#fff" stop-opacity=".904"/><stop offset="1" stop-color="#fff" stop-opacity="0"/></linearGradient><filter id="e" color-interpolation-filters="sRGB" height="1.217" width="1.217" x="-.109" y="-.109"><feGaussianBlur stdDeviation="8.387"/></filter><linearGradient id="f" gradientUnits="userSpaceOnUse" x1="-26.034" x2="-16.034" xlink:href="#a" y1="217.8" y2="208.3"/><linearGradient id="g" gradientTransform="matrix(-.5 0 0 .5 -86.164 315.52)" gradientUnits="userSpaceOnUse" x1="-224" x2="-204" xlink:href="#a" y1="-195.44" y2="-214.44"/><linearGradient id="h" gradientUnits="userSpaceOnUse" x1="224.1" x2="231.725" y1="178.38" y2="178.38"><stop offset="0" stop-color="#c00"/><stop offset=".492" stop-color="#e57d7d"/><stop offset="1" stop-color="#fff"/></linearGradient><linearGradient id="c" gradientTransform="matrix(.76928 .54482 -.54482 .76928 147.93 56.16)" gradientUnits="userSpaceOnUse" x1="88.848" x2="-70.704" y1="294.83" y2="181.68"><stop offset="0"/><stop offset="1" stop-color="#3d4141"/></linearGradient><linearGradient id="i" gradientUnits="userSpaceOnUse" x1="-165.46" x2="-181.02" y1="101.04" y2="73.816"><stop offset="0" stop-color="#f2f2f2"/><stop offset="1" stop-color="#202222"/></linearGradient><filter id="j" color-interpolation-filters="sRGB" height="1.265" width="1.235" x="-.118" y="-.133"><feGaussianBlur stdDeviation="2.144"/></filter><linearGradient id="k" gradientUnits="userSpaceOnUse" x1="-575" x2="-455" y1="-146.44" y2="-146.44"><stop offset="0" stop-color="#d3d7cf"/><stop offset="1" stop-color="#555753"/></linearGradient><filter id="b" color-interpolation-filters="sRGB" height="1.048" width="1.048" x="-.024" y="-.024"><feGaussianBlur stdDeviation="2.841"/></filter><g transform="translate(161.75 -105.29)"><g fill-rule="evenodd"><path d="M-38-26.444c0 78.148-63.352 141.5-141.5 141.5S-321 51.704-321-26.444s63.352-141.5 141.5-141.5S-38-104.592-38-26.444z" filter="url(#b)" opacity=".482" transform="translate(220.88 301.23) scale(1.0565)"/><path d="M159.753 263.292c0 82.563-66.931 149.495-149.495 149.495s-149.495-66.932-149.495-149.495 66.932-149.495 149.495-149.495 149.495 66.932 149.495 149.495z" fill="#3d4141" stroke="#c2c2c2" stroke-width="8"/><path d="M125.76 239.56c-78.812-55.817-187.95-37.176-243.77 41.636a177.193 177.193 0 0 0-8.086 12.539c7.216 33.168 26.353 63.859 56.237 85.023 63.517 44.984 151.47 29.961 196.46-33.556 17.708-25.003 26.115-53.813 25.928-82.279a175.574 175.574 0 0 0-26.771-23.364z" fill="url(#c)"/></g><path d="M559.88 179.03c-16.78 0-32.962 2.607-48.156 7.406l-31.812 177.81h185.19l-51.469-175.94c-16.797-6.003-34.889-9.281-53.75-9.281z" fill="url(#d)" filter="url(#e)" transform="matrix(1 0 0 .88469 -559.88 -25.676)"/><path d="m-25.284 208.3-10.75 9.5 10.75 9.5v-4.75h9.25v-9h-9.25z" fill="url(#f)" transform="translate(10.349)"/><path d="m25.086 208.3 10.75 9.5-10.75 9.5v-4.75h-9.25v-9h9.25z" fill="url(#g)" transform="translate(10.349)"/><path d="M18.03 261.298a7.778 7.778 0 1 1-15.556 0 7.778 7.778 0 0 1 15.556 0z" fill="#c00" fill-rule="evenodd" stroke="#000"/><path d="m-.657 173.93 1.88-9.4h-3.92l-.32 1.56h.78l-1.56 7.84h-.78l-.32 1.56h4.7l.32-1.56zm4.21-9.4-.32 1.56h6.26l-.62 3.14h-3.12l-.32 1.56h3.12l-.62 3.14h-6.26l-.32 1.56h9.4l2.2-10.96zm10.976 0-2.2 10.96h9.4l2.2-10.96zm1.26 9.4 1.56-7.84h3.12l-1.56 7.84zm-63.361 8.6-1.58 7.82h6.26l-.3 1.58h-6.26l-.32 1.56h9.4l2.2-10.96zm5 6.26h-3.12l.94-4.7h3.12zm5.976-6.26-2.2 10.96h9.4l2.2-10.96zm1.26 9.4 1.56-7.84h3.12l-1.56 7.84zm-35.641 46.44.32-1.56h-9.4l-.94 4.7h6.26l-.94 4.7h-3.12l.3-1.58h-3.14l-.62 3.14h9.4l1.56-7.84h-6.26l.32-1.56zm1.896-1.56-2.2 10.96h9.4l2.2-10.96zm1.26 9.4 1.56-7.84h3.12l-1.56 7.84zm.167 64 1.88-9.4h-3.92l-.32 1.56h.78l-1.56 7.84h-.78l-.32 1.56h4.7l.32-1.56zm4.21-9.4-2.2 10.96h9.4l2.2-10.96zm1.26 9.4 1.56-7.84h3.12l-1.56 7.84zM45.347 191.93l1.88-9.4h-3.92l-.32 1.56h.78l-1.56 7.84h-.78l-.32 1.56h4.7l.32-1.56zm4.21-9.4-.64 3.12h3.14l.32-1.56h3.12l-1.88 9.4h3.14l2.2-10.96zm10.976 0-2.2 10.96h9.4l2.2-10.96zm1.26 9.4 1.56-7.84h3.12l-1.56 7.84zm19.024 44.88-.64 3.12h3.14l.32-1.56h3.12l-.94 4.7h-6.26l-.94 4.7h9.4l.32-1.56h-6.26l.3-1.58h6.26l1.58-7.82zm13.016 9.4 1.88-9.4h-3.92l-.32 1.56h.78l-1.56 7.84h-.78l-.32 1.56h4.7l.32-1.56zm4.21-9.4-2.2 10.96h9.4l2.2-10.96zm1.26 9.4 1.56-7.84h3.12l-1.56 7.84zm-34.85 54.6-.64 3.12h3.14l.32-1.56h3.12l-.94 4.7h-6.26l-.94 4.7h9.4l.32-1.56h-6.26l.3-1.58h6.26l1.58-7.82zm20.057 1.56.32-1.56h-9.4l-.94 4.7h6.26l-.94 4.7h-3.12l.3-1.58h-3.14l-.62 3.14h9.4l1.56-7.84h-6.26l.32-1.56zm1.896-1.56-2.2 10.96h9.4l2.2-10.96zm1.26 9.4 1.56-7.84h3.12l-1.56 7.84zM-27.295 174.43l1.128-5.64h-2.352l-.192.936h.468l-.936 4.704h-.468l-.192.936h2.82l.192-.936zm3.75 0 1.128-5.64h-2.352l-.192.936h.468l-.936 4.704h-.468l-.192.936h2.82l.192-.936zm2.526-5.64-1.32 6.576h5.64l1.32-6.576zm.756 5.64.936-4.704h1.872l-.936 4.704zm57.554 0 1.128-5.64h-2.352l-.192.936h.468l-.936 4.704h-.468l-.192.936h2.82l.192-.936zm7.974-4.7.192-.936h-5.64l-.564 2.82h3.756l-.564 2.82h-1.872l.18-.948h-1.884l-.372 1.884h5.64l.936-4.704h-3.756l.192-.936zm1.138-.94-1.32 6.576h5.64l1.32-6.576zm.756 5.64.936-4.704h1.872l-.936 4.704zm-117.221 34.36-.384 1.872h1.884l.192-.936h1.872l-1.128 5.64h1.884l1.32-6.576zm6.586 0-1.32 6.576h5.64l1.32-6.576zm.756 5.64.936-4.704h1.872l-.936 4.704zm-17.342 58.36-.192.936h3.756l-.372 1.884h-1.872l-.192.936h1.872l-.372 1.884h-3.756l-.192.936h5.64l1.32-6.576zm6.586 0-1.32 6.576h5.64l1.32-6.576zm.756 5.64.936-4.704h1.872l-.936 4.704zm152.011-64 1.128-5.64h-2.352l-.192.936h.468l-.936 4.704h-.468l-.192.936h2.82l.192-.936zm2.526-5.64-.948 4.692h3.756l-.18.948h-3.756l-.192.936h5.64l1.32-6.576zm3 3.756h-1.872l.564-2.82h1.872zm3.586-3.756-1.32 6.576h5.64l1.32-6.576zm.756 5.64.936-4.704h1.872l-.936 4.704zm-2.51 58.36-.384 1.872h1.884l.192-.936h1.872l-.564 2.82h-3.756l-.564 2.82h5.64l.192-.936h-3.756l.18-.948h3.756l.948-4.692zm6.586 0-.192.936h3.756l-.372 1.884h-1.872l-.192.936h1.872l-.372 1.884h-3.756l-.192.936h5.64l1.32-6.576zm6.586 0-1.32 6.576h5.64l1.32-6.576zm.756 5.64.936-4.704h1.872l-.936 4.704z" fill="#fff"/><path d="M224.1 128.38h5v105.5h-5z" fill="url(#h)" transform="rotate(58.178)"/><g fill-rule="evenodd"><path d="M-152.74 73.816c0 13.864-12.663 25.102-28.284 25.102s-28.284-11.239-28.284-25.102c0-13.864 12.663-25.102 28.284-25.102s28.284 11.239 28.284 25.102z" fill="url(#i)" stroke="#000" stroke-width="1.722" transform="matrix(.58129 0 0 .58036 115.55 218.23)"/><path d="M-152.74 73.816c0 13.864-12.663 25.102-28.284 25.102s-28.284-11.239-28.284-25.102c0-13.864 12.663-25.102 28.284-25.102s28.284 11.239 28.284 25.102z" filter="url(#j)" stroke="#000" stroke-width="3.025" transform="matrix(.33129 0 0 .32981 70.292 236.73)"/><path d="M11.135 109.38c-.473 0-.934.027-1.406.031 1.797.016 3.593.079 5.375.156v-.125a156.673 156.673 0 0 0-3.969-.062zm-2.813 8c-80.404 0-145.5 65.095-145.5 145.5s65.095 145.5 145.5 145.5c.472 0 .937.004 1.407 0-79.754-.757-144.09-65.566-144.09-145.5s64.34-144.74 144.09-145.5c-.47-.004-.935 0-1.406 0zm6.782 298.81c-1.782.077-3.578.14-5.375.156.472.004.933.031 1.406.031 1.324 0 2.653-.029 3.969-.062v-.125z" fill="#fff"/><path d="M8.791 109.38c.473 0 .934.027 1.406.031-1.797.016-3.593.079-5.375.156v-.125a158.59 158.59 0 0 1 3.97-.062zm2.813 8c80.405 0 145.5 65.095 145.5 145.5s-65.095 145.5-145.5 145.5c-.471 0-.937.004-1.407 0 79.754-.757 144.09-65.566 144.09-145.5s-64.34-144.74-144.09-145.5c.47-.004.936 0 1.407 0zM4.822 416.19c1.782.077 3.578.14 5.375.156-.471.004-.933.031-1.406.031-1.324 0-2.653-.029-3.969-.062v-.125z" fill="#2e3436"/></g><rect fill="url(#k)" height="45" ry="22.5" transform="translate(137.43 388.146) scale(.31322)" width="120" x="-575" y="-168.94"/><path d="M-30.476 340.16c-.371-1.112-1.19-1.388-2.312-1.388-1.826 0-2.464 1.075-2.464 2.016 0 1.075.885 1.56 1.77 1.893l.903.352c.619.238.818.505.818.857 0 .542-.437.894-1.122.894-.875 0-1.16-.542-1.227-.99l-1.284.486c.152.694.875 1.588 2.444 1.588 1.722 0 2.616-.98 2.616-2.121 0-.894-.466-1.408-1.427-1.807l-1.484-.619c-.456-.19-.58-.352-.58-.694 0-.38.295-.809 1.066-.809.732 0 .894.485.989.77zm2.485 5.546h1.427v-5.65h1.855v-1.122h-5.137v1.122h1.855zm6.884-.922c-1.008 0-1.674-.742-1.674-2.464s.666-2.464 1.674-2.464 1.675.742 1.675 2.464-.666 2.464-1.675 2.464m0 1.084c1.874 0 3.178-1.217 3.178-3.548s-1.304-3.548-3.178-3.548-3.177 1.217-3.177 3.548 1.303 3.548 3.177 3.548m4.093-.162h1.427v-2.54h1.275c1.122 0 2.283-.58 2.283-2.159 0-1.141-.666-2.073-2.293-2.073h-2.692zm1.427-3.586v-2.14h1.256c.685 0 .932.447.932.97 0 .761-.4 1.17-1.237 1.17z"/><text font-family="'Spumoni LP'" font-size="40" letter-spacing="0" transform="translate(189.75 287.737) scale(1.00002)" word-spacing="0" x="-289" xml:space="preserve" y="125.056">               </text><rect fill="url(#k)" height="45" ry="22.5" transform="translate(205.433 388.146) scale(.31322)" width="120" x="-575" y="-168.94"/><text font-family="'Spumoni LP'" font-size="40" letter-spacing="0" transform="translate(257.754 287.737) scale(1.00002)" word-spacing="0" x="-289" xml:space="preserve" y="125.056">               </text><path d="m38.073 336.62-4.307 1.313-.031.132 2.315.55a2.047 2.047 0 0 1 1.515 2.482 2.047 2.047 0 0 1-2.47 1.533l-2.272-.54-.055.234 3.297 3.06 4.306-1.312.063-.264c.172.097.35.176.55.224l12.836 3.055a2.115 2.115 0 0 0 2.557-1.574 2.127 2.127 0 0 0-1.57-2.573l-12.835-3.054a2.085 2.085 0 0 0-.64-.044l.038-.162-3.297-3.06zm16.058 7.274a1.025 1.025 0 0 1-.474 1.993 1.025 1.025 0 0 1 .474-1.993z" fill="#2e3436"/><g fill="none"><g stroke="#1a9b3f"><path d="M48.516 377.83c4.63.513 8.145 3.014 8.145 6.024 0 3.044-3.593 5.563-8.3 6.037a9.726 9.726 0 0 1 .155-12.061z" stroke-width="1.4"/><g stroke-width="1.781"><path d="m-147.08 86.544 7.955-.354" transform="matrix(-.78621 .29713 0 .78621 -70.852 354.54)"/><path d="m42.672 386.28 7.955-.354m-7.955-3.646 7.955-.354m-7.955-3.646 7.955-.354" transform="matrix(-.78621 .29713 0 .78621 78.332 71.936)"/></g></g><g stroke="#888a85"><path d="M13.953 378.33c4.631.513 8.145 3.014 8.145 6.024 0 3.044-3.592 5.563-8.3 6.037a9.726 9.726 0 0 1 .155-12.061z" opacity=".571" stroke-width="1.4"/><g opacity=".571" stroke-width="1.781"><path d="m-147.08 86.544 7.955-.354" transform="matrix(-.78621 .0917 0 .78621 -105.164 324.644)"/><path d="m42.672 386.28 7.955-.354m-7.955-3.646 7.955-.354m-7.955-3.646 7.955-.354" transform="matrix(-.78621 .0917 0 .78621 44.02 81.019)"/></g></g><g stroke="#4e4f4c"><path d="M-20.484 378.33c4.63.513 8.145 3.014 8.145 6.024 0 3.044-3.593 5.563-8.3 6.037a9.726 9.726 0 0 1 .155-12.061z" stroke-width="1.4"/><g stroke-width="1.781"><path d="m-147.08 86.544 7.955-.354" transform="matrix(-.78621 .05539 0 .78621 -139.602 319.447)"/><path d="m42.672 386.28 7.955-.354m-7.955-3.646 7.955-.354m-7.955-3.646 7.955-.354" transform="matrix(-.78621 .05539 0 .78621 9.582 82.713)"/></g><path d="M-27.245 377.378v13.789"/></g></g></g><path d="m122.108 36.085 8.457-3.078 2.015 13.633 4.618 12.686-3.253 1.184-4.617-12.686-7.22-11.739zM82.738 60.62l6.894-5.785 6.557 12.122 8.677 10.341-2.651 2.225-8.678-10.341-10.799-8.562zM54.13 97.145l4.5-7.794L68.935 98.5l11.691 6.75-1.73 2.998-11.692-6.75-13.076-4.352zm231.23 133.5 4.5-7.794-13.077-4.352-11.691-6.75-1.731 2.998 11.691 6.75 10.307 9.148zm-245.613-89.4 1.562-8.864 12.815 5.072 13.294 2.344-.6 3.409-13.296-2.344-13.775.383zM302.69 187.61l1.564-8.864-13.776.383-13.295-2.344-.601 3.408 13.295 2.345 12.814 5.071zm-261.38 0-1.563-8.863 13.776.383 13.295-2.345.6 3.41-13.294 2.343-12.814 5.072zm262.944-46.365-1.563-8.863-12.814 5.072-13.295 2.344.601 3.409 13.295-2.345 13.776.383zm-245.624 89.4-4.5-7.794 13.075-4.352 11.692-6.75 1.73 2.998-11.691 6.75-10.307 9.148zm231.23-133.5-4.5-7.794-10.308 9.148-11.691 6.75 1.73 2.998 11.692-6.75 13.076-4.352zm-28.607-36.52-6.894-5.785-6.556 12.121-8.678 10.342 2.652 2.225 8.677-10.342 10.8-8.561zM221.89 36.094l-8.456-3.078-2.015 13.633-4.618 12.686 3.253 1.184 4.617-12.686 7.22-11.739zM176.5 26.49h-9l2.77 13.5v13.5h3.46v-13.5l2.77-13.5zm-63 28.715 6.75 11.691-2.997 1.731-6.75-11.691zm39.369-13.692 2.344 13.294-3.409.602-2.344-13.295zm41.671.601-2.345 13.294-3.409-.6 2.344-13.296zm38.96 14.822-6.75 11.691-2.997-1.73 6.75-11.692zm31.541 27.253L254.7 92.867l-2.225-2.652 10.341-8.678zM81.192 238.458l10.341-8.677-2.225-2.652-10.341 8.678zM285.36 120.58l-12.687 4.618-1.184-3.253 12.686-4.617zM59.834 202.665l12.685-4.617-1.184-3.253-12.685 4.618zm232.17-40.938h-13.5v-3.462h13.5zm-240 0h13.5v-3.462h-13.5zm232.171 40.939-12.686-4.617 1.184-3.253 12.686 4.618zM58.65 120.582l12.685 4.617 1.184-3.253-12.686-4.617zm204.166 117.875-10.342-8.678 2.225-2.651 10.342 8.677zM78.966 84.187l10.342 8.678 2.225-2.652-10.342-8.677z" opacity=".98" fill="#fff"/></svg>